<svg width="21" height="25" viewBox="0 0 21 25" fill="none" xmlns="http://www.w3.org/2000/svg">
<path d="M20.4909 9.42012L11.4693 0.398577C11.212 0.14126 10.8687 0 10.4953 0C10.1293 0 9.78618 0.14126 9.52886 0.398577L0.507117 9.42012C-0.0258098 9.95325 -0.0258098 10.8209 0.507117 11.3537L1.32622 12.1732C1.58354 12.4303 1.92683 12.5717 2.29309 12.5717C2.65915 12.5717 3.01423 12.4303 3.27134 12.1732L8.54614 6.90976V23.6315C8.54614 24.3852 9.13638 25 9.89004 25H11.0486C11.8022 25 12.4522 24.3852 12.4522 23.6315V6.85041L17.7569 12.1732C18.014 12.4303 18.3482 12.5717 18.7144 12.5717C19.0807 12.5717 19.4189 12.4303 19.6764 12.1732L20.4931 11.3537C21.0262 10.8207 21.0242 9.95325 20.4909 9.42012Z" fill="#213D45"/>
</svg>
